<svg id="Layer_1" data-name="Layer 1" xmlns="http://www.w3.org/2000/svg" xmlns:xlink="http://www.w3.org/1999/xlink" viewBox="0 0 516.85 138.04"><defs><style>.cls-1{fill:url(#radial-gradient);}.cls-2{fill:#fff;}.cls-3{fill:#d2202a;}.cls-4{fill:url(#radial-gradient-2);}.cls-5{fill:url(#radial-gradient-3);}.cls-6{fill:url(#radial-gradient-4);}.cls-7{fill:url(#radial-gradient-5);}</style><radialGradient id="radial-gradient" cx="360" cy="360" r="187.12" gradientUnits="userSpaceOnUse"><stop offset="0" stop-color="#e3e8f6"/><stop offset="1" stop-color="#98c6ea"/></radialGradient><radialGradient id="radial-gradient-2" cx="489.02" cy="421.74" r="18.34" xlink:href="#radial-gradient"/><radialGradient id="radial-gradient-3" cx="517.27" cy="421.74" r="16.06" xlink:href="#radial-gradient"/><radialGradient id="radial-gradient-4" cx="551.13" cy="421.74" r="22.8" xlink:href="#radial-gradient"/><radialGradient id="radial-gradient-5" cx="585.75" cy="421.74" r="17.72" xlink:href="#radial-gradient"/></defs><path class="cls-1" d="M616,332.15l2.32-10.65H553.16l4-18.45H462l-.81,3.73c-4.72-2.59-10.54-3.73-19.14-3.73H156.31c-8.53,0-13.85.33-19.16,2.11-12.18,3.94-21.94,15.2-24.88,28.73-2.06,9.49-.2,18.59,5.11,25.32h-7.33l-8.47,39h51c7.83,0,13.58-.33,18.62-1.81L166.68,417h41.15l4.08-18.76h1.29c11.41,0,20-2.95,27.94-9.58l.21-.18c4.57,5,12.8,10.48,27,10.48a49.49,49.49,0,0,0,19-3.68l-.64,3h41.15l5.94-27.36h10.39c-.59,6.22.2,12.71,5.13,18.65,7,8.71,18,8.71,21.65,8.71h55.34a61.86,61.86,0,0,0,15.29-1.54l-.34,1.54h66.36l1.38-6.33c6.14,5.62,14.1,6.26,18.09,6.32h74.46l8.13-37.44h-8.1l9.86-8.12,3.92-18,3-2.47Z" transform="translate(-101.58 -303.05)"/><path class="cls-2" d="M152.53,395h-47l7.1-32.68H125.7a20.47,20.47,0,0,1-4.56-3.61c-5.72-6.18-7.8-15-5.79-24.19,2.71-12.46,11.65-22.82,22.79-26.41,4.93-1.66,9.8-1.95,18.17-1.95H371.68l-7.1,32.68H185.07a21.7,21.7,0,0,1,4.63,4.52c5.1,6.57,5.29,16.38,3.77,23.39-2.23,10.27-9,19.56-17.62,24.25C169.81,394.41,163.24,395,152.53,395Zm5.19-33.12Z" transform="translate(-101.58 -303.05)"/><path class="cls-2" d="M205.29,413.8h-34.7L190,324.65H222.2c10.49,0,17.36,1.14,23.55,7.12,5.31,5,10.83,14.38,7.21,31a41.66,41.66,0,0,1-13.84,23.41c-7.31,6.11-15.3,8.84-25.92,8.84h-3.83Zm12.6-58-1.54,7.1c1.28-.9,2.14-2.54,2.78-5.47h0a15.09,15.09,0,0,0,.26-1.63h-1.5Z" transform="translate(-101.58 -303.05)"/><path class="cls-2" d="M268.39,395.76c-14.18,0-21.78-5.74-25.66-10.55s-7.93-13.6-4.87-27.69c4.43-20.4,21-33.59,42.2-33.59,17.28,0,24.65,8.55,27.51,13.64,4.07,7.08,5.05,15.3,2.94,25C306.13,382.74,289.6,395.76,268.39,395.76ZM277,355c-1.62,0-3.69.51-5.17,7.31a17.88,17.88,0,0,0-.38,2.44c1.63,0,3.7-.51,5.15-7.2A18.49,18.49,0,0,0,277,355Z" transform="translate(-101.58 -303.05)"/><path class="cls-2" d="M325.39,395h-34.7L306,324.65h28.55c8,0,16.27.56,22.2,7.23,6.25,7,5.06,15.43,3.46,22.81l-2.83,13h-26Z" transform="translate(-101.58 -303.05)"/><path class="cls-2" d="M389.24,395H371c-5.66,0-13.79-.79-19.21-7.56-6.11-7.34-4.95-15.69-3.23-23.61l1.76-8.08h-8.71l6.76-31.14h8.72l4-18.45h34.7l-4,18.45h12.71l-6.77,31.14H385.05l-1.76,8.11H396Z" transform="translate(-101.58 -303.05)"/><path class="cls-2" d="M426.38,395H375.86l19.3-88.84h46.9c8.69,0,14.27,1.17,18.66,3.92,8.11,5,12,15.61,9.69,26.43a34.15,34.15,0,0,1-8.28,15.63c2.15,4.72,2.63,10.39,1.26,16.66-2.51,11.61-9.88,20.38-20.21,24.07C439.06,394.37,433.74,395,426.38,395ZM427.94,362h0Z" transform="translate(-101.58 -303.05)"/><polygon class="cls-2" points="378.36 91.99 343.67 91.99 362.97 3.15 397.67 3.15 378.36 91.99"/><polygon class="cls-2" points="415.53 36.96 380.83 36.96 388.18 3.15 422.88 3.15 415.53 36.96"/><polygon class="cls-2" points="403.57 91.99 368.88 91.99 384.17 21.6 418.87 21.6 403.57 91.99"/><path class="cls-2" d="M599.07,395H528.46c-5.66,0-13.78-.79-19.2-7.56-6.12-7.34-4.95-15.68-3.23-23.61l1.75-8.08h-8.71l6.77-31.14h8.71l4-18.45h34.7l-4,18.45h65.12l-5.7,26.24-15.8,13h13ZM540.72,363.9h2l9.84-8.11H542.48Z" transform="translate(-101.58 -303.05)"/><path class="cls-3" d="M181.59,349.65c-3.11-4.1-8.21-5.64-18.25-5.64h-11c-4.92,0-6.51-.2-8.36-1.13-2.22-1.12-3.12-3.58-2.45-6.66.78-3.58,3.1-6.25,6.13-7,2.26-.51,2.77-.51,9.25-.61H356.32l2.65-12.2H156.31c-8,0-11.65.31-15,1.44-7.71,2.46-14.07,10-16,18.86-1.27,5.84-.12,11.37,3.2,15,2.92,3.07,7.94,4.51,16.14,4.51h12.61c3.28,0,5.85.41,7.11,1.23,2.48,1.33,3.52,4.1,2.83,7.27a9.42,9.42,0,0,1-4.74,6.26c-2,1.12-5.08,1.63-10.51,1.63H120.84l-2.65,12.2h34.34c10.15,0,14.58-.61,18.43-2.77,6-3.28,10.9-10,12.5-17.42C184.73,358.77,184,352.72,181.59,349.65Z" transform="translate(-101.58 -303.05)"/><path class="cls-3" d="M222.2,334.89h-24L183.3,403.56H197l4.07-18.76H213.2c8.31,0,14-1.95,19.34-6.46A31.45,31.45,0,0,0,243,360.61c2.07-9.53.6-16.91-4.27-21.42C235.22,335.81,231.53,334.89,222.2,334.89Zm6.94,24.7c-2.12,9.73-7.88,14.55-17.31,14.55h-8.4l6.21-28.59h9.43C227.47,345.55,231.1,350.57,229.14,359.59Z" transform="translate(-101.58 -303.05)"/><path class="cls-3" d="M280.06,334.17c-16.3,0-28.79,9.84-32.19,25.52-3.54,16.3,4.12,25.83,20.52,25.83s28.75-9.64,32.11-25.11c1.56-7.17,1-12.91-1.87-17.83C295.53,337,289.08,334.17,280.06,334.17Zm6.55,25.52C284.38,369.94,279.19,375,271.1,375s-11.39-5.12-9.28-14.86c2.23-10.25,7.34-15.37,15.54-15.37S288.77,349.75,286.61,359.69Z" transform="translate(-101.58 -303.05)"/><path class="cls-3" d="M334.53,334.89H314.24L303.39,384.8h13.74l8.53-39.25h4c6.76,0,8.34,2.15,6.81,9.22l-.58,2.67h13.22l1.07-4.92c1.65-7.59,1.38-11.07-1.1-13.84S342.94,334.89,334.53,334.89Z" transform="translate(-101.58 -303.05)"/><path class="cls-3" d="M372.25,371.68c-.64-1.33-.51-2.87.61-8l3.94-18.14h12.71l2.32-10.66H379.11l4-18.45H369.39l-4,18.45h-8.71l-2.32,10.66h8.72l-4.46,20.5c-1.76,8.09-1.53,11.78,1.16,15,2.08,2.66,5.53,3.79,11.27,3.79H381l2.32-10.66h-5.44C375,374.14,373,373.32,372.25,371.68Z" transform="translate(-101.58 -303.05)"/><path class="cls-3" d="M446.92,350.67c6.27-2.46,11.94-9.22,13.48-16.29,1.43-6.56-.6-12.81-5.12-15.58-2.62-1.64-6.67-2.36-13.22-2.36H403.42L388.56,384.8h37.82c6.15,0,10.47-.51,13.36-1.54,6.88-2.46,11.89-8.5,13.65-16.6C455,359.08,452.83,353.64,446.92,350.67Zm-9,13.53a11.36,11.36,0,0,1-4.65,6.77c-2,1.33-3.53,1.63-7.73,1.63H405.77l3.45-15.88h20.09c3.89,0,5.46.31,7,1.43S438.51,361.54,437.93,364.2Zm6-28.08a11.38,11.38,0,0,1-4.65,6.76c-2,1.34-3.53,1.64-7.63,1.64H411.87l3.45-15.88h20.09c3.9,0,5.36.31,6.86,1.43S444.51,333.46,443.93,336.12Z" transform="translate(-101.58 -303.05)"/><polygon class="cls-3" points="371.22 13.39 356.37 81.75 370.11 81.75 384.96 13.39 371.22 13.39"/><polygon class="cls-3" points="393.54 26.72 407.28 26.72 410.17 13.39 396.44 13.39 393.54 26.72"/><polygon class="cls-3" points="381.58 81.75 395.32 81.75 406.16 31.84 392.43 31.84 381.58 81.75"/><path class="cls-3" d="M601.66,334.89H536.54l4-18.45H526.81l-4,18.45h-8.72l-2.31,10.66h8.71L516,366.05c-1.76,8.09-1.54,11.78,1.15,15,2.09,2.66,5.53,3.79,11.27,3.79h9.95l2.31-10.66h-5.43c-2.87,0-4.84-.82-5.62-2.46-.63-1.33-.5-2.87.61-8l3.94-18.14H581.1L546,374.45l-2.25,10.35h47.05l2.32-10.66H564.33l35.08-28.9Z" transform="translate(-101.58 -303.05)"/><path class="cls-2" d="M126.61,338.28c1.92-8.81,8.28-16.4,16-18.86,3.32-1.12,7-1.43,15-1.43H359.8l.1-.5H157.25c-8,0-11.65.31-15,1.44-7.71,2.46-14.07,10-16,18.86-1.13,5.18-.33,10.11,2.18,13.67C126.22,348,125.54,343.23,126.61,338.28Zm247,35.11c.82,1.53,2.75,2.3,5.52,2.3h5l.11-.5H378.8C376.34,375.19,374.55,374.59,373.6,373.39Zm74.9-21.31-.33.14a12.8,12.8,0,0,1,4.92,4.14A12.27,12.27,0,0,0,448.5,352.08ZM168.18,365.76a9.42,9.42,0,0,1-4.74,6.26c-2,1.12-5.07,1.63-10.5,1.63H121.78l-2.65,12.2h.43l2.54-11.7h31.16c5.43,0,8.51-.51,10.5-1.64a9.4,9.4,0,0,0,4.74-6.25,6.92,6.92,0,0,0-.9-5.56A7.18,7.18,0,0,1,168.18,365.76Zm119.36-5C285.32,371,280.13,376,272,376c-3.93,0-6.7-1.19-8.29-3.49,1.53,2.63,4.4,4,8.61,4,8.1,0,13.29-5,15.52-15.27,1.12-5.18.8-9-.93-11.51C288.39,352.23,288.6,355.89,287.54,360.74ZM164.27,345.06h-11c-4.93,0-6.52-.2-8.37-1.13a4.51,4.51,0,0,1-1.67-1.44,4.66,4.66,0,0,0,2,1.94c1.85.92,3.45,1.13,8.37,1.13h11c10,0,15.13,1.53,18.24,5.62-.11-.16-.2-.34-.31-.48C179.42,346.6,174.32,345.06,164.27,345.06Zm216.1-8.62h12.28l.11-.5H380.48Zm58.49,28.81a11.34,11.34,0,0,1-4.64,6.77c-2,1.33-3.53,1.63-7.74,1.63H407.13l-.11.5h19.79c4.2,0,5.7-.31,7.73-1.64a11.41,11.41,0,0,0,4.65-6.76,6.23,6.23,0,0,0-.82-5.17A6.52,6.52,0,0,1,438.86,365.25Zm119.53-29.31H537.9l-.11.5h64.7l.11-.5Zm7.2,39.75H594l.11-.5H566.19Zm-69.54-44.87h.43L499.27,318h13.3l.11-.5H499Zm35,42.57c.83,1.53,2.75,2.3,5.52,2.3h5l.11-.5h-5.44C533.77,375.19,532,374.59,531,373.39Zm-86.16-36.22a11.29,11.29,0,0,1-4.64,6.76c-2,1.34-3.54,1.64-7.63,1.64H413.23l-.11.5h19.79c4.1,0,5.6-.31,7.63-1.64a11.41,11.41,0,0,0,4.65-6.76,6.3,6.3,0,0,0-.82-5.17A6.52,6.52,0,0,1,444.86,337.17Zm-221.72-1.23h-24l-14.92,68.67h.43l14.81-68.17h24c9.33,0,13,.92,16.49,4.3a15.06,15.06,0,0,1,1.66,1.82,15.08,15.08,0,0,0-2-2.32C236.16,336.86,232.46,335.94,223.14,335.94Zm261,49.91h.42l10.74-49.41h13.31l.1-.5H494.94Zm-27.89-66c-2.61-1.64-6.66-2.36-13.22-2.36H404.35L389.5,385.85h.43L404.67,318h38.64c6.56,0,10.61.72,13.22,2.36A10.27,10.27,0,0,1,459.4,323,10.46,10.46,0,0,0,456.21,319.85Zm31.26-2.36H473.73l-14.85,68.36h.43L474.06,318h13.3Zm34.27,29.6h-.42l-4.35,20c-1.6,7.39-1.55,11.1.51,14.11-1.74-2.93-1.71-6.63-.19-13.62Zm59.69,0L547,375.5l-2.24,10.35h.43l2.14-9.85,35.08-28.91Zm-39.95-29.6H527.75l-4,18.45H515l-2.32,10.66h.43l2.21-10.16h8.71l4-18.45h13.3Zm-206,18.45h-20.3l-10.84,49.91h.43l10.73-49.41h20.3c8.4,0,12,.92,14.55,3.79.23.26.44.54.64.81a9.75,9.75,0,0,0-1-1.31C347.46,336.86,343.87,335.94,335.47,335.94Zm28.85,11.15h-.43l-4.34,20c-1.61,7.39-1.56,11.1.51,14.11-1.75-2.93-1.71-6.63-.19-13.62ZM230.07,360.64c-2.11,9.74-7.88,14.55-17.31,14.55h-8l-.11.5h8.41c9.43,0,15.19-4.82,17.3-14.55,1-4.56.55-8.1-1.21-10.48C230.66,353,231,356.38,230.07,360.64ZM281,335.22c-16.3,0-28.79,9.84-32.2,25.52-1.6,7.36-.89,13.32,1.85,17.66-2.48-4.29-3.06-10.09-1.53-17.16,3.41-15.68,15.9-25.52,32.2-25.52,8.78,0,15.1,2.74,18.29,8a.3.3,0,0,1,0-.08C296.46,338.09,290,335.22,281,335.22Zm56.4,20.6-.58,2.67h.43l.47-2.17c.78-3.61.75-5.93-.36-7.34C338.14,350.42,338.1,352.61,337.4,355.82Zm46.66-38.33H370.32l-4,18.45H357.6l-2.31,10.66h.43l2.2-10.16h8.72l4-18.45H384Z" transform="translate(-101.58 -303.05)"/><path class="cls-4" d="M503.19,440.47H494a3.76,3.76,0,0,1-3.22-1.83l-4.39-7.28v5.34a3.77,3.77,0,0,1-3.77,3.77h-7.75a3.77,3.77,0,0,1-3.77-3.77V406.77a3.77,3.77,0,0,1,3.77-3.77H484a3.76,3.76,0,0,1,3.21,1.81l4.48,7.33v-5.37a3.77,3.77,0,0,1,3.77-3.77h7.75a3.77,3.77,0,0,1,3.77,3.77V436.7A3.77,3.77,0,0,1,503.19,440.47Zm-7.08-7.54h3.32V410.54h-.22v15a3.76,3.76,0,0,1-2.75,3.62,3.72,3.72,0,0,1-2.82-.31Zm-17.5,0h.22V417.82a3.77,3.77,0,0,1,2.76-3.63,3.71,3.71,0,0,1,2.65.24l-2.38-3.89h-3.25Z" transform="translate(-101.58 -303.05)"/><path class="cls-5" d="M526.35,440.47H508.18a3.77,3.77,0,0,1-3.77-3.77V406.77a3.77,3.77,0,0,1,3.77-3.77h18.17a3.77,3.77,0,0,1,3.77,3.77v6.75a3.77,3.77,0,0,1-1.58,3.07,3.82,3.82,0,0,1,.45,1.81v6.67a3.82,3.82,0,0,1-.45,1.81,3.77,3.77,0,0,1,1.58,3.07v6.75A3.77,3.77,0,0,1,526.35,440.47ZM512,432.93h1.69a3.74,3.74,0,0,1-1.47-3v-4.88a3.75,3.75,0,0,1,2-3.33,3.76,3.76,0,0,1-2-3.34v-4.88a3.74,3.74,0,0,1,1.47-3H512Z" transform="translate(-101.58 -303.05)"/><path class="cls-6" d="M566.28,440.47H556a3.78,3.78,0,0,1-3.59-2.64l-1.31-4.15-1.3,4.14a3.76,3.76,0,0,1-3.59,2.65H536a3.76,3.76,0,0,1-3.65-2.87L525,407.67a3.77,3.77,0,0,1,3.66-4.67h8a3.78,3.78,0,0,1,3.67,2.9l1.77,7.47,2.2-7.64A3.77,3.77,0,0,1,547.9,403h6.46a3.77,3.77,0,0,1,3.62,2.74l2.18,7.63,1.79-7.48a3.77,3.77,0,0,1,3.66-2.89h8a3.77,3.77,0,0,1,3.66,4.67l-7.33,29.93A3.78,3.78,0,0,1,566.28,440.47Zm-7.5-7.54h4.54l5.49-22.39h-.23l-4.43,18.53a3.77,3.77,0,0,1-3.58,2.89,3.67,3.67,0,0,1-2.32-.73Zm-19.85,0h4.53l.54-1.73a3.54,3.54,0,0,1-2.36.76,3.78,3.78,0,0,1-3.58-2.89l-4.4-18.53h-.22Zm12.18-15.59a3.74,3.74,0,0,1,2.67,1.12l-2.26-7.92h-.79l-2.27,7.89a3.81,3.81,0,0,1,2.64-1.09Z" transform="translate(-101.58 -303.05)"/><path class="cls-7" d="M586.35,441.09c-8.81,0-15.44-5.07-16.49-12.63a3.77,3.77,0,0,1,2.95-4.2l1.79-.38a11.12,11.12,0,0,1-3.65-8.61c0-7.59,6.06-12.89,14.73-12.89,8.38,0,14.47,4.4,15.91,11.48a3.77,3.77,0,0,1-2.86,4.42l-1.17.27a11.62,11.62,0,0,1,4.1,9.35C601.66,435.67,595.37,441.09,586.35,441.09Zm-7.59-10.39a6.51,6.51,0,0,0,.7.69c-.17-.23-.33-.47-.49-.73Zm9.58-8.57c2.73,1.15,5.28,2.9,5.28,6.36a6.23,6.23,0,0,1-.64,2.75,5,5,0,0,0,1.15-3.34C594.13,424.82,592.4,423.49,588.34,422.13Zm-9.09-9.57a4.81,4.81,0,0,0-.76,2.71c0,2.09.9,3.28,3.21,4.38a5.42,5.42,0,0,1-2.91-4.83A5.78,5.78,0,0,1,579.25,412.56Z" transform="translate(-101.58 -303.05)"/><path class="cls-2" d="M503.19,439.21H494a2.52,2.52,0,0,1-2.15-1.21l-6.72-11.15v9.85a2.51,2.51,0,0,1-2.51,2.51h-7.75a2.51,2.51,0,0,1-2.51-2.51V406.77a2.51,2.51,0,0,1,2.51-2.51H484a2.53,2.53,0,0,1,2.14,1.2l6.81,11.14v-9.83a2.51,2.51,0,0,1,2.51-2.51h7.75a2.51,2.51,0,0,1,2.51,2.51V436.7A2.51,2.51,0,0,1,503.19,439.21Zm-7.79-5h5.28V409.28H498v16.25a2.51,2.51,0,0,1-4.65,1.31l-10.73-17.56h-5.21v24.91h2.73V417.82a2.51,2.51,0,0,1,4.66-1.3Z" transform="translate(-101.58 -303.05)"/><path class="cls-2" d="M526.35,439.21H508.18a2.51,2.51,0,0,1-2.51-2.51V406.77a2.51,2.51,0,0,1,2.51-2.51h18.17a2.51,2.51,0,0,1,2.51,2.51v6.75a2.51,2.51,0,0,1-2.51,2.51h-.28a2.53,2.53,0,0,1,1.67,2.37v6.67a2.53,2.53,0,0,1-1.67,2.37h.28a2.51,2.51,0,0,1,2.51,2.51v6.75A2.51,2.51,0,0,1,526.35,439.21Zm-15.66-5h13.15v-1.73h-7.91a2.52,2.52,0,0,1-2.51-2.51v-4.88a2.51,2.51,0,0,1,2.51-2.51h6.79v-1.65h-6.79a2.51,2.51,0,0,1-2.51-2.51v-4.88a2.52,2.52,0,0,1,2.51-2.51h7.91v-1.73H510.69Z" transform="translate(-101.58 -303.05)"/><path class="cls-2" d="M566.28,439.21H556a2.51,2.51,0,0,1-2.39-1.76l-2.51-8-2.49,8a2.51,2.51,0,0,1-2.4,1.76H536a2.5,2.5,0,0,1-2.43-1.91l-7.34-29.93a2.55,2.55,0,0,1,.46-2.15,2.52,2.52,0,0,1,2-1h8a2.5,2.5,0,0,1,2.44,1.93L542,418.31l3.52-12.23a2.52,2.52,0,0,1,2.42-1.82h6.46a2.51,2.51,0,0,1,2.41,1.82l3.5,12.23,2.9-12.12a2.51,2.51,0,0,1,2.44-1.93h8a2.51,2.51,0,0,1,2.44,3.11l-7.33,29.93A2.52,2.52,0,0,1,566.28,439.21Zm-8.42-5h6.45l6.1-24.91h-2.82l-4.66,19.5a2.53,2.53,0,0,1-2.39,1.93,2.58,2.58,0,0,1-2.47-1.82l-5.61-19.61h-2.67l-5.65,19.61a2.42,2.42,0,0,1-2.47,1.82,2.53,2.53,0,0,1-2.39-1.93l-4.62-19.5h-2.82l6.1,24.91h6.44l4.33-13.83a2.51,2.51,0,0,1,2.39-1.76h0a2.51,2.51,0,0,1,2.39,1.75Z" transform="translate(-101.58 -303.05)"/><path class="cls-2" d="M586.35,439.84c-8.29,0-14.27-4.54-15.24-11.55a2.51,2.51,0,0,1,2-2.8l4.5-.95a10.24,10.24,0,0,1-5.36-9.27c0-6.85,5.54-11.63,13.47-11.63,6.07,0,13.11,2.75,14.68,10.47a2.53,2.53,0,0,1-1.91,2.95l-3.94.89a10.69,10.69,0,0,1,5.9,9.95C600.41,435,594.76,439.84,586.35,439.84Zm-9.63-10c1.66,3.62,5.85,5,9.63,5,4.37,0,9-1.81,9-6.91,0-4.66-3.54-6.07-8.54-7.55-3.24-1-6.8-2.06-6.8-5.53,0-2.36,1.92-4.89,6.13-4.89a6.79,6.79,0,0,1,6.16,3.37l2.23-.51c-2.19-3.8-7.2-4.13-8.89-4.13-5.13,0-8.45,2.59-8.45,6.61s3.14,5.47,7.94,7c3.41,1.15,7.19,2.43,7.19,6.18,0,2.51-1.82,5.05-5.89,5.05a7.25,7.25,0,0,1-6.83-4.31Zm7.57-2.54a2.19,2.19,0,0,0,2.18,1.21,3.4,3.4,0,0,0,.63,0A17.25,17.25,0,0,0,584.29,427.31ZM586.44,415l1.12.36A1.75,1.75,0,0,0,586.44,415Z" transform="translate(-101.58 -303.05)"/><path class="cls-3" d="M495.44,406.77h7.75V436.7H494L482.6,417.82V436.7h-7.75V406.77H484l11.46,18.76Z" transform="translate(-101.58 -303.05)"/><path class="cls-3" d="M526.35,413.52H515.93v4.88h9.3v6.67h-9.3V430h10.42v6.75H508.18V406.77h18.17Z" transform="translate(-101.58 -303.05)"/><path class="cls-3" d="M565.61,406.77h8l-7.33,29.93H556l-4.91-15.59-4.88,15.59H536l-7.33-29.93h8l5.09,21.43,6.17-21.43h6.46l6.12,21.43Z" transform="translate(-101.58 -303.05)"/><path class="cls-3" d="M573.59,428l7.67-1.63c.84,3.38,2.67,4.71,5.21,4.71,2.17,0,3.38-1,3.38-2.54,0-2-2.5-2.79-5.46-3.79-4.33-1.42-9.67-3.21-9.67-9.43,0-5.5,4.5-9.12,11-9.12,5.26,0,11,2.29,12.22,8.46l-7,1.58c-.92-2.58-2.34-3.75-4.76-3.75-2.12,0-3.62.88-3.62,2.38s2.25,2.29,5,3.12c4.5,1.34,10.34,3.13,10.34,10,0,5.67-4.59,9.42-11.55,9.42C579.76,437.32,574.43,434,573.59,428Z" transform="translate(-101.58 -303.05)"/></svg>